<svg xmlns="http://www.w3.org/2000/svg" xmlns:xlink="http://www.w3.org/1999/xlink" width="300" height="300" viewBox="-43.75439205259005 -251.3748362180445 1269.4772403495147 1544.116417567647" preserveAspectRatio="xMinYMin meet"><g transform="matrix(1,0,0,-1,0,1041.366745131558)"><path fill-rule="evenodd" fill="#66cc99" stroke="#555555" stroke-width="10.29410945045098" opacity="0.6" d="M 268.8607435272881,123.51335160309357 L 372.99869425801484,93.28058781472083 L 477.96610178823374,72.29495725125379 L 582.7971139204465,60.3648922352736 L 685.674351880574,62.37395534041637 L 779.1046175509955,82.43911144421979 L 842.1158244855885,152.54109205234815 L 839.4949810054193,247.0834545324107 L 815.8616773760302,349.4505390327414 L 758.1883044820519,437.53700313662296 L 677.5117755331574,515.3464124184205 L 575.1446910328266,509.98158084807875 L 474.3875526117818,501.40665315346956 L 396.9888488719819,446.2569850970757 L 315.6066276187128,427.76443600540017 L 224.9993709927627,494.2137008176132 L 155.23492667069394,571.841412172186 L 131.60162304130495,674.2084966725167 L 107.96831941191589,776.5755811728475 L 84.33501578252692,878.942665673178 L 60.701712153137905,981.3097501735087 L 37.06840852374886,1083.6768346738395 L 13.435104894359839,1186.0439191741702 L 107.24737962849049,1197.9982634102603 L 209.61446412882123,1203.363094980602 L 311.981548629152,1208.7279265509437 L 414.3486331294827,1214.0927581212857 L 516.7157176298131,1219.4575896916274 L 619.0828021301438,1224.822421261969 L 721.4498866304746,1230.1872528323108 L 823.8169711308053,1235.5520844026526 L 866.7047451523115,1159.5253538465472 L 890.3380487817005,1057.1582693462165 L 881.8994789879225,979.4783996326302 L 779.5323944875918,974.1135680622884 L 677.165309987261,968.7487364919466 L 574.7982254869302,963.3839049216049 L 472.4311409865994,958.0190733512632 L 374.85524884793745,948.9657098628742 L 398.48855247732644,846.5986253625434 L 422.1218561067155,744.2315408622127 L 493.7732106522198,756.2740326793872 L 593.2681092681562,770.049048972814 L 696.0413196999922,765.71688233842 L 799.9851080185094,733.4308385016524 L 897.6102258440094,686.4593830215176 L 984.923544470968,615.522499369743 L 1053.7724061974106,530.2426313412994 L 1110.8512230731928,435.82005402054466 L 1144.9000477205857,335.9269902932329 L 1168.5333513499747,233.55990579290216 L 1167.285482902979,135.17985207807558 L 1145.6131645404707,40.072797202518444 L 1094.0777552083573,-37.16866589199688 L 1032.0353031272825,-108.12419638479986 L 944.5484240469955,-148.53188012606856 L 855.604229159497,-187.18988183818826 L 753.4930304795349,-193.18947834230562 L 650.3656906005413,-194.18533927109462 L 545.8386523407263,-186.04093056561058 L 440.8537411406554,-170.94479112928389 L 335.91398686972695,-148.34117559436743 L 282.09397739900254,-80.22843753523424 L 275.4773604631453,21.64245703392957 L 268.8607435272881,123.51335160309357 z" /></g></svg>