<svg xmlns="http://www.w3.org/2000/svg" xmlns:xlink="http://www.w3.org/1999/xlink" width="300" height="300" viewBox="-36.2176847548091 -364.8237007207226 1234.999551323027 2233.75502369265" preserveAspectRatio="xMinYMin meet"><g transform="matrix(1,0,0,-1,0,1504.1076222512047)"><path fill-rule="evenodd" fill="#66cc99" stroke="#555555" stroke-width="14.891700157951" opacity="0.6" d="M 518.1132448206586,-59.46161530470408 L 394.6490834652824,-166.20252630536936 L 279.56763946058254,-234.1712178107789 L 174.34006000840668,-276.7693168320661 L 86.51033833707162,-282.0920331765504 L 46.51398278936311,-229.7480947838162 L 145.1133756339721,-62.66654346368148 L 226.2566252192437,-51.37594183972715 L 317.01320153669974,-40.879982599590676 L 428.2310777778785,16.233905715477817 L 551.7941572677319,123.78814016443562 L 676.4351542422385,236.01539792559618 L 781.3946965345528,391.3818174621008 L 881.1157279434335,558.2303643165017 L 915.6837538033301,694.1167233558176 L 926.5884280491683,818.7577203303242 L 910.1648260571725,908.1344178549075 L 825.6968177067772,909.706882839098 L 734.2314827043401,891.4577248812734 L 609.5904857298337,779.230467120113 L 484.9494887553269,667.0032093589523 L 361.9011099567547,528.6066749235313 L 239.50955769990452,384.87774668384077 L 174.4034312393311,371.19161749226146 L 185.30810548516945,495.8326144667683 L 196.21277973100774,620.4736114412751 L 207.1174539768461,745.114608415782 L 218.0221282226844,869.7556053902883 L 228.92680246852274,994.3966023647952 L 296.65035379407124,1112.836108860791 L 421.2913507685776,1225.0633666219514 L 545.9323477430844,1337.2906243831121 L 670.5733447175912,1449.517882144273 L 795.2143416920976,1561.7451399054332 L 919.8553386666049,1673.9723976665944 L 1044.4963356411113,1786.199655427755 L 1098.7186704538433,1775.3691610902513 L 1087.8139962080052,1650.728164115745 L 1076.9093219621668,1526.0871671412385 L 954.0609884081878,1413.6642493159409 L 902.6269613679785,1429.3673566243858 L 880.9521579503747,1497.0751889698702 L 756.3111609758674,1384.847931208709 L 631.6701640013611,1272.6206734475486 L 507.0291670268547,1160.3934156863882 L 399.2901070565853,1046.3213977541816 L 388.38543281074703,921.6804007796752 L 377.4807585649087,797.0394038051679 L 366.57608431907033,672.3984068306615 L 464.42788045898385,762.1485453439748 L 588.8882943286777,888.6403848974994 L 713.5292913031841,1000.8676426586599 L 838.1702882776914,1113.0949004198212 L 934.8891044604725,1148.2145038126093 L 1016.4091142756909,1141.362302891705 L 1097.9291240909095,1134.5101019708004 L 1116.0501990240455,1046.860392389677 L 1105.1455247782073,922.2193954151705 L 1094.240850532369,797.5783984406632 L 1067.9766065781475,665.7061247112533 L 967.699286509195,498.98853649524995 L 867.4219664402419,332.27094827924543 L 767.1446463712895,165.55336006324205 L 642.754241795165,52.76564245645636 L 518.1132448206586,-59.46161530470408 z" /></g></svg>