<svg xmlns="http://www.w3.org/2000/svg" xmlns:xlink="http://www.w3.org/1999/xlink" width="300" height="300" viewBox="-0.8763687879710957 -58.88108 434.7574487879711 1589.7621599999998" preserveAspectRatio="xMinYMin meet"><g transform="matrix(1,0,0,-1,0,1472.0)"><path fill-rule="evenodd" fill="#66cc99" stroke="#555555" stroke-width="10.598414399999998" opacity="0.6" d="M 58.003711212028904,1292.335624496563 L 155.99954399962232,1325.0009020924274 L 267.9992520315916,1404.0006961506915 L 308.99914362029364,1472.0005163465876 L 308.9992011413925,1472.0006015188485 L 308.9992671008276,1472.0006803372714 L 308.9993408018699,1472.000751969298 L 308.99942146601603,1472.0008156582799 L 308.99950824121134,1472.0008707314705 L 308.9996002108503,1472.0009166071327 L 308.99969640345836,1472.0009528006822 L 308.9997958029539,1472.0009789298067 L 308.999897359381,1472.0009947185047 L 309.0,1472.001 L 375.0,1472.001 L 375.0000980171403,1472.0009951847267 L 375.000195090322,1472.0009807852805 L 375.00029028467725,1472.0009569403358 L 375.00038268343235,1472.0009238795326 L 375.0004713967368,1472.0008819212644 L 375.000555570233,1472.0008314696122 L 375.00063439328414,1472.0007730104533 L 375.0007071067812,1472.0007071067812 L 375.0007730104534,1472.0006343932841 L 375.0008314696123,1472.000555570233 L 375.00088192126435,1472.0004713967369 L 375.00092387953254,1472.0003826834325 L 375.00095694033575,1472.0002902846772 L 375.0009807852804,1472.000195090322 L 375.00099518472666,1472.0000980171403 L 375.001,1472.0 L 375.001,0.0 L 375.00099518472666,-9.80171403295606e-05 L 375.0009807852804,-0.00019509032201612826 L 375.00095694033575,-0.00029028467725446234 L 375.00092387953254,-0.0003826834323650898 L 375.00088192126435,-0.00047139673682599763 L 375.0008314696123,-0.0005555702330196022 L 375.0007730104534,-0.0006343932841636455 L 375.0007071067812,-0.0007071067811865475 L 375.00063439328414,-0.000773010453362737 L 375.000555570233,-0.0008314696123025453 L 375.0004713967368,-0.000881921264348355 L 375.00038268343235,-0.0009238795325112868 L 375.00029028467725,-0.0009569403357322089 L 375.000195090322,-0.0009807852804032304 L 375.0000980171403,-0.000995184726672197 L 375.0,-0.001 L 309.0,-0.001 L 308.9999019828597,-0.000995184726672197 L 308.999804909678,-0.0009807852804032304 L 308.99970971532275,-0.0009569403357322088 L 308.99961731656765,-0.0009238795325112865 L 308.9995286032632,-0.000881921264348355 L 308.999444429767,-0.0008314696123025453 L 308.99936560671586,-0.0007730104533627366 L 308.9992928932188,-0.0007071067811865475 L 308.9992269895466,-0.0006343932841636453 L 308.9991685303877,-0.000555570233019602 L 308.99911807873565,-0.00047139673682599763 L 308.99907612046746,-0.0003826834323650897 L 308.99904305966425,-0.0002902846772544621 L 308.9990192147196,-0.00019509032201612837 L 308.99900481527334,-9.801714032956059e-05 L 308.999,0.0 L 308.999,1361.9974255248085 L 266.00073780541203,1314.9993249865379 L 266.00066147628644,1314.9992500339192 L 266.0005775772061,1314.999183663935 L 266.00048706831456,1314.9991266361258 L 162.00048706831453,1256.9991266361258 L 162.0003827434004,1256.9990761453093 L 162.0002732770902,1256.9990380646425 L 74.00027327709019,1231.9990380646425 L 74.00017859306726,1231.9990160769764 L 74.00008222160389,1231.9990033859283 L 73.99998507326791,1231.99900011141 L 73.99988806596747,1231.9990062843603 L 73.99979211627817,1231.9990218464548 L 73.99969813078272,1231.999046650654 L 73.9996069975051,1231.9990804625952 L 73.99951957752008,1231.9991229628054 L 73.99943669681724,1231.9991737497205 L 73.99935913849673,1231.9992323434794 L 73.99928763537002,1231.9992981904575 L 73.99922286303594,1231.9993706684982 L 73.99916543349728,1231.9994490927913 L 73.99911588937832,1231.999532722343 L 73.9990746987977,1231.9996207669778 L 73.99904225094552,1231.9997123948042 L 73.99901885240602,1231.9998067400743 L 73.99900472426083,1231.999902911365 L 73.999,1232.0 L 73.999,1233.9998653874918 L 58.003711212028904,1292.335624496563 z" /></g></svg>