<svg xmlns="http://www.w3.org/2000/svg" xmlns:xlink="http://www.w3.org/1999/xlink" width="300" height="300" viewBox="68.84 -60.160000000000004 980.32 1624.3200000000002" preserveAspectRatio="xMinYMin meet"><g transform="matrix(1,0,0,-1,0,1504.0)"><path fill-rule="evenodd" fill="#66cc99" stroke="#555555" stroke-width="10.828800000000001" opacity="0.6" d="M 989.0,197.0 L 737.0,0.0 L 561.0,0.0 L 451.0,0.0 L 254.0,81.0 L 129.0,263.0 L 129.0,405.0 L 129.0,1072.0 L 129.0,1285.0 L 360.0,1504.0 L 563.0,1504.0 L 766.0,1504.0 L 989.0,1272.0 L 989.0,1070.0 L 989.0,405.0 L 989.0,197.0 z M 924.0,1254.0 L 735.0,1443.0 L 559.0,1443.0 L 383.0,1443.0 L 195.0,1254.0 L 195.0,1083.0 L 195.0,404.0 L 195.0,234.0 L 406.0,61.0 L 559.0,61.0 L 717.0,61.0 L 924.0,225.0 L 924.0,404.0 L 924.0,1085.0 L 924.0,1254.0 z" /></g></svg>