<svg xmlns="http://www.w3.org/2000/svg" xmlns:xlink="http://www.w3.org/1999/xlink" width="300" height="300" viewBox="-1.8800000000000026 -58.88 973.76 1589.7600000000002" preserveAspectRatio="xMinYMin meet"><g transform="matrix(1,0,0,-1,0,1472.0)"><path fill-rule="evenodd" fill="#66cc99" stroke="#555555" stroke-width="10.598400000000002" opacity="0.6" d="M 760.0,824.0 L 913.0,584.0 L 913.0,451.0 L 913.0,325.0 L 801.0,118.0 L 606.0,0.0 L 487.0,0.0 L 369.0,0.0 L 172.0,118.0 L 57.0,325.0 L 57.0,451.0 L 57.0,589.0 L 207.0,822.0 L 338.0,870.0 L 250.0,904.0 L 139.0,1063.0 L 139.0,1149.0 L 139.0,1238.0 L 229.0,1386.0 L 389.0,1472.0 L 487.0,1472.0 L 586.0,1472.0 L 745.0,1388.0 L 838.0,1238.0 L 838.0,1149.0 L 838.0,1061.0 L 729.0,907.0 L 631.0,870.0 L 760.0,824.0 z M 559.0,895.0 L 692.0,960.0 L 774.0,1076.0 L 774.0,1148.0 L 774.0,1221.0 L 698.0,1341.0 L 569.0,1411.0 L 489.0,1411.0 L 367.0,1411.0 L 203.0,1259.0 L 203.0,1147.0 L 203.0,1077.0 L 283.0,960.0 L 412.0,895.0 L 483.0,895.0 L 559.0,895.0 z M 383.0,834.0 L 219.0,730.0 L 123.0,555.0 L 123.0,449.0 L 123.0,340.0 L 219.0,163.0 L 387.0,61.0 L 487.0,61.0 L 588.0,61.0 L 754.0,163.0 L 848.0,340.0 L 848.0,449.0 L 848.0,555.0 L 748.0,730.0 L 580.0,834.0 L 481.0,834.0 L 383.0,834.0 z" /></g></svg>