<svg xmlns="http://www.w3.org/2000/svg" xmlns:xlink="http://www.w3.org/1999/xlink" width="300" height="300" viewBox="101.12 -58.88 1004.7600000000001 1589.7600000000002" preserveAspectRatio="xMinYMin meet"><g transform="matrix(1,0,0,-1,0,1472.0)"><path fill-rule="evenodd" fill="#66cc99" stroke="#555555" stroke-width="10.598400000000002" opacity="0.6" d="M 160.0,1472.0 L 612.0,1472.0 L 776.0,1472.0 L 973.0,1307.0 L 973.0,1145.0 L 973.0,1069.0 L 895.0,912.0 L 809.0,870.0 L 807.0,866.0 L 807.0,863.0 L 909.0,820.0 L 1047.0,620.0 L 1047.0,455.0 L 1047.0,268.0 L 856.0,0.0 L 631.0,0.0 L 160.0,0.0 L 160.0,1472.0 z M 760.0,895.0 L 903.0,1024.0 L 905.0,1131.0 L 911.0,1272.0 L 750.0,1411.0 L 596.0,1411.0 L 225.0,1411.0 L 225.0,895.0 L 659.0,895.0 L 760.0,895.0 z M 795.0,61.0 L 979.0,260.0 L 979.0,463.0 L 979.0,629.0 L 795.0,834.0 L 643.0,834.0 L 225.0,834.0 L 225.0,61.0 L 627.0,61.0 L 795.0,61.0 z" /></g></svg>