<svg xmlns="http://www.w3.org/2000/svg" xmlns:xlink="http://www.w3.org/1999/xlink" width="300" height="300" viewBox="42.24 -57.76 1033.52 1559.52" preserveAspectRatio="xMinYMin meet"><g transform="matrix(1,0,0,-1,0,1444.0)"><path fill-rule="evenodd" fill="#66cc99" stroke="#555555" stroke-width="10.3968" opacity="0.6" d="M 1018.0,705.0 L 1018.0,367.0 L 788.0,0.0 L 354.0,0.0 L 100.0,371.0 L 100.0,1053.0 L 350.0,1444.0 L 573.0,1444.0 L 707.0,1444.0 L 893.0,1307.0 L 938.0,1190.0 L 1018.0,975.0 L 1018.0,705.0 z M 942.0,1024.0 L 750.0,1364.0 L 389.0,1364.0 L 176.0,1026.0 L 176.0,711.0 L 176.0,344.0 L 342.0,172.0 L 434.0,78.0 L 672.0,78.0 L 823.0,184.0 L 864.0,279.0 L 942.0,455.0 L 942.0,1024.0 z" /></g></svg>