<svg xmlns="http://www.w3.org/2000/svg" xmlns:xlink="http://www.w3.org/1999/xlink" width="300" height="300" viewBox="-120.56281043026239 -301.04775214114545 1381.5826851782367 1670.8687525216883" preserveAspectRatio="xMinYMin meet"><g transform="matrix(1,0,0,-1,0,1068.7732482393972)"><path fill-rule="evenodd" fill="#66cc99" stroke="#555555" stroke-width="11.139125016811255" opacity="0.6" d="M 365.8949332668765,9.627741915613683 L 468.03897867491924,14.676190854190168 L 569.3259130079672,29.23978431950286 L 668.8914837713463,52.80037745023995 L 764.1860900425535,89.61984786396528 L 847.518120425267,141.27385621324703 L 893.7577944042215,232.6024527173971 L 874.6735863215773,326.12836739455776 L 834.6755798746062,420.3577655108882 L 765.5440022551423,488.8071192226384 L 676.835267768259,539.209345503351 L 582.6058696519284,499.2113390563798 L 490.4385425236815,456.55243379112136 L 428.1894537159402,375.28699875442334 L 355.7819759272482,329.28044227978836 L 259.8406700613888,364.9775824712863 L 181.3092561227376,418.8909565923297 L 141.3112496757665,513.1203547086602 L 101.31324322879547,607.3497528249907 L 61.315236781824495,701.5791509413211 L 21.317230334853406,795.8085490576516 L -18.680776112117655,890.0379471739823 L -58.678782559088745,984.2673452903127 L 26.436609282641484,1027.9509273805718 L 120.666007398972,1067.9489338275428 L 214.89540551530257,1107.946940274514 L 309.12480363163303,1147.944946721485 L 403.35420174796315,1187.942953168456 L 497.5835998642937,1227.940959615427 L 591.8129979806242,1267.9389660623979 L 686.0423960969547,1307.936972509369 L 739.3037709511825,1246.5274496224833 L 779.3017773981536,1152.2980515061527 L 785.1344453377859,1071.8690680754 L 690.9050472214553,1031.8710616284288 L 596.6756491051249,991.8730551814579 L 502.4462509887943,951.8750487344869 L 408.21685287246373,911.8770422875157 L 319.09148121998993,869.81687529179 L 359.089487666961,775.5874771754593 L 399.0874941139321,681.3580790591288 L 463.5836235535573,717.6305395229083 L 553.6617452410326,765.0552709900207 L 649.9762312122293,795.506999685826 L 752.3013098962747,798.4392789020296 L 851.3375970749225,784.5680647312859 L 945.0066236190243,743.2748031093431 L 1024.034222656243,681.4099305990505 L 1093.7287184602028,606.4319522071944 L 1142.974740729107,518.1977463333196 L 1182.972747176078,423.9683482169891 L 1199.1358468768008,325.30084828855996 L 1195.7333324690621,222.9903264210463 L 1161.420245442766,128.41538634948222 L 1116.2315525254012,36.56223168663047 L 1042.0073060560444,-33.39521224409029 L 966.1200515127018,-102.09852065767208 L 872.2403317052934,-142.64383158887892 L 776.5347873627946,-178.53612166653363 L 677.9184297118637,-205.77431970645378 L 577.6522746305111,-226.2252561133783 L 476.1061470290182,-239.1637242699718 L 414.07424906576375,-189.35676372626438 L 389.9845911663201,-89.86451090532543 L 365.8949332668765,9.627741915613683 z" /></g></svg>