<svg xmlns="http://www.w3.org/2000/svg" xmlns:xlink="http://www.w3.org/1999/xlink" width="300" height="300" viewBox="-210.97051818322552 6.280203279181535 1692.4831371650155 1572.0542588451274" preserveAspectRatio="xMinYMin meet"><g transform="matrix(1,0,0,-1,0,1584.6146654034903)"><path fill-rule="evenodd" fill="#66cc99" stroke="#555555" stroke-width="11.283220914433436" opacity="0.6" d="M -28.090115013341176,358.24218943895664 L -95.21114977778666,462.4786657529591 L -131.46023862834082,581.7185610503582 L -148.2859575474842,704.4422410436747 L -137.09400527614963,828.0506715500597 L -86.28121249831884,922.7005206574668 L 35.63403058473574,896.7769794327571 L 30.613918031820162,787.0426919170485 L 23.219185081412945,662.814308411771 L 51.095255351641356,541.5729536805977 L 118.87758372258702,437.7627315068675 L 190.36872259046612,335.6628040329824 L 301.3728383364965,292.31274827802747 L 422.8939185424933,264.5998416753862 L 530.1682258325493,309.66003601357056 L 632.2681533064344,381.15117488144955 L 709.7968720681195,467.56340022618406 L 726.1459798005758,591.1274921103213 L 727.195083233886,710.952958245278 L 655.7039443660071,813.0528857191629 L 584.2128054981279,915.1528131930481 L 490.59397416012456,996.6142979816373 L 392.407128855533,1073.3886005456443 L 392.5727911817008,1158.194207149172 L 494.67271865558615,1229.685346017051 L 596.7726461294715,1301.1764848849302 L 698.8725736033568,1372.6676237528095 L 800.9725010772418,1444.1587626206883 L 903.0724285511271,1515.6499014885676 L 989.8812251387742,1500.4207277599292 L 1061.3723640066532,1398.3208002860442 L 1132.8635028745323,1296.2208728121589 L 1204.3546417424116,1194.1209453382735 L 1275.8457806102904,1092.0210178643886 L 1347.3369194781699,989.921090390503 L 1418.8280583460487,887.8211629166179 L 1400.1351983818927,801.6231076650005 L 1298.0352709080078,730.1319687971215 L 1195.9353434341228,658.6408299292427 L 1123.9617618921332,758.0046890364399 L 1146.225560825888,843.5730914012528 L 1206.6014980200616,922.4212954982625 L 1135.1103591521821,1024.5212229721483 L 1063.6192202843033,1126.621150446033 L 992.1280814164243,1228.7210779199181 L 916.0882829437417,1305.024274873454 L 813.9883554698567,1233.5331360055752 L 711.8884279959711,1162.0419971376957 L 609.7885005220862,1090.550858269817 L 667.2862629899328,1011.5468373439646 L 750.7165697710068,919.6998987230099 L 822.2077086388858,817.599971249125 L 893.6988475067651,715.5000437752393 L 905.7967526788218,599.8743915890527 L 885.5652970026126,476.88631766308026 L 865.3338413264028,353.8982437371069 L 788.9445100228595,266.2346165814158 L 686.8445825489746,194.743477713537 L 584.744655075089,123.2523388456575 L 479.3428167980298,68.96476391492286 L 358.0300786559837,97.57591019182428 L 236.71734051393668,126.18705646872581 L 115.40460237189058,154.79820274562712 L 43.401023854537755,256.1422619650717 L -28.090115013341176,358.24218943895664 z" /></g></svg>