<svg xmlns="http://www.w3.org/2000/svg" xmlns:xlink="http://www.w3.org/1999/xlink" width="300" height="300" viewBox="88.26918755676618 -248.33079999999998 1060.0616124432338 1520.6616" preserveAspectRatio="xMinYMin meet"><g transform="matrix(1,0,0,-1,0,1024.0)"><path fill-rule="evenodd" fill="#66cc99" stroke="#555555" stroke-width="10.137744" opacity="0.6" d="M 177.99013396920392,146.00163139091904 L 273.98680966946415,110.73789501054138 L 372.91237362391405,84.56779532589916 L 473.7688218902165,67.35206782990711 L 575.8744826958343,64.01 L 672.7648500844776,78.99734711504662 L 751.0136199795718,144.99848346134343 L 769.99,238.54633600570426 L 769.99,340.913420506035 L 733.099340494613,430.9332421508807 L 671.1362386088475,511.99 L 568.7691541085168,511.99 L 467.26051996281524,508.7349143990217 L 378.20699645323657,458.252343747095 L 293.57936799325626,444.1949407289973 L 219.21291416803135,514.5415862393452 L 167.99,594.8537767738703 L 167.99,697.2208612742011 L 167.99,799.5879457745318 L 167.99,901.9550302748623 L 167.99,1004.3221147751931 L 167.99,1106.6891992755238 L 167.99,1209.0562837758546 L 263.4076666203996,1216.01 L 365.77475112073034,1216.01 L 468.1418356210611,1216.01 L 570.5089201213918,1216.01 L 672.8760046217221,1216.01 L 775.2430891220529,1216.01 L 877.6101736223836,1216.01 L 979.9772581227144,1216.01 L 1005.01,1138.6713590327404 L 1005.01,1036.3042745324096 L 978.9528916878648,959.99 L 876.5858071875341,959.99 L 774.2187226872034,959.99 L 671.8516381868726,959.99 L 569.4845536865419,959.99 L 471.01,956.0974691862114 L 471.01,853.7303846858806 L 471.01,751.3633001855499 L 544.5517795881669,759.5516306499857 L 645.999446635813,768.01 L 746.5558367478379,758.4078962671156 L 841.8923010735974,721.1254800503381 L 927.6357689230013,669.6603998321891 L 997.7239997624679,595.0503476482409 L 1046.2967567831292,507.2248892906898 L 1081.154648320701,410.9754872839618 L 1092.01,310.51351868180154 L 1092.01,208.1464341814708 L 1068.3357481291007,111.00709543338544 L 1025.227811437215,18.15923178932394 L 956.689075231606,-55.49026834578925 L 879.2027773032839,-122.38491403930475 L 783.5444471711154,-157.77935712842245 L 686.8453398214021,-191.36957336569128 L 584.5862870028286,-192.01 L 482.46463392714435,-187.6538918743792 L 381.04498622150845,-174.19430465697442 L 280.75868637116827,-153.8423829529782 L 182.22952080094495,-126.07507265591526 L 144.58998755676618,-55.98973024620447 L 161.29006076298504,45.00595057235719 L 177.99013396920392,146.00163139091904 z" /></g></svg>