<svg xmlns="http://www.w3.org/2000/svg" xmlns:xlink="http://www.w3.org/1999/xlink" width="300" height="300" viewBox="431.9453434701267 -574.8654974187758 398.5428476512771 2572.992" preserveAspectRatio="xMinYMin meet"><g transform="matrix(1,0,0,-1,0,1423.2610051624483)"><path fill-rule="evenodd" fill="#66cc99" stroke="#555555" stroke-width="17.153280000000002" opacity="0.6" d="M 626.3921911214037,-479.56949741877577 L 601.6152778041074,-471.8810913709554 L 577.9218323645988,-409.96160500294053 L 555.8857945154228,-319.3878626394135 L 536.9188628272116,-191.28099279069858 L 527.2413434701267,-37.821270819204585 L 545.4739499609028,98.17551031392361 L 562.8758794966841,-9.109668948576996 L 582.3799774434046,-132.8086835372256 L 605.4408095684998,-207.53899431559074 L 630.2237499817577,-213.96949741877577 L 655.151949376659,-213.96949741877577 L 674.9878757609831,-108.26601287108542 L 693.4684182055488,25.572020832716987 L 698.3921911214037,207.52311492250305 L 698.3921911214037,406.94871008171367 L 693.1289701573016,587.8636296579325 L 674.7609070539211,722.6890000662513 L 655.2502001471833,834.0305025812243 L 630.3220007522821,834.0305025812243 L 605.3938013573807,834.0305025812243 L 581.3084218674625,786.0886322939157 L 557.466924323357,727.8581935970467 L 543.5921911214037,805.9033139992582 L 543.5921911214037,1005.3289091584693 L 543.5921911214037,1204.7545043176801 L 543.5921911214037,1404.180099476891 L 543.5921911214037,1603.6056946361014 L 543.5921911214037,1803.0312897953122 L 556.0454889180661,1902.8305025812242 L 580.9736883129674,1902.8305025812242 L 605.9018877078687,1902.8305025812242 L 630.8300871027701,1902.8305025812242 L 655.7582864976714,1902.8305025812242 L 680.6864858925728,1902.8305025812242 L 705.6146852874741,1902.8305025812242 L 717.5921911214037,1799.224954093449 L 717.5921911214037,1599.7993589342386 L 717.5921911214037,1400.3737637750285 L 693.0568993757278,1397.2305025812243 L 681.5921911214037,1504.938431705842 L 675.6005005859253,1656.4305025812241 L 650.6723011910237,1656.4305025812241 L 625.7441017961225,1656.4305025812241 L 600.8159024012213,1656.4305025812241 L 579.5921911214037,1626.7945976605529 L 579.5921911214037,1427.3690025013425 L 579.5921911214037,1227.9434073421307 L 579.5921911214037,1028.5178121829206 L 599.1313245099894,1031.3731160029615 L 623.7493776260301,1056.4305025812243 L 648.6775770209314,1056.4305025812243 L 673.6057764158329,1056.4305025812243 L 693.9365889551257,966.174301335762 L 711.76491814126,826.7891822441663 L 729.5932473273945,687.4040631525695 L 735.1921911214038,506.8340347353941 L 735.1921911214038,307.4084395761838 L 735.1921911214038,107.98284441697217 L 731.9949445614434,-79.98228368443864 L 713.3911431635079,-212.7229206859245 L 694.7873417655723,-345.46355768741137 L 676.1835403676367,-478.20419468889725 L 651.320390516305,-479.56949741877577 L 626.3921911214037,-479.56949741877577 z" /></g></svg>