<svg xmlns="http://www.w3.org/2000/svg" xmlns:xlink="http://www.w3.org/1999/xlink" width="300" height="300" viewBox="273.2700223230906 -248.33079999999998 681.0936074659403 1520.6616" preserveAspectRatio="xMinYMin meet"><g transform="matrix(1,0,0,-1,0,1024.0)"><path fill-rule="evenodd" fill="#66cc99" stroke="#555555" stroke-width="10.137744" opacity="0.6" d="M 349.6309101705533,146.00163139091904 L 407.22891559070945,110.73789501054138 L 466.58425396337935,84.56779532589916 L 527.0981229231609,67.35206782990711 L 588.3615194065316,64.01 L 646.4957398397175,78.99734711504662 L 693.445001776774,144.99848346134343 L 704.830829789031,238.54633600570426 L 704.830829789031,340.913420506035 L 682.6964340857987,430.9332421508807 L 645.5185729543394,511.99 L 584.0983222541411,511.99 L 523.1931417667201,508.7349143990217 L 469.7610276609729,458.252343747095 L 418.98445058498464,444.1949407289973 L 374.36457828984976,514.5415862393452 L 343.63082978903094,594.8537767738703 L 343.63082978903094,697.2208612742011 L 343.63082978903094,799.5879457745318 L 343.63082978903094,901.9550302748623 L 343.63082978903094,1004.3221147751931 L 343.63082978903094,1106.6891992755238 L 343.63082978903094,1209.0562837758546 L 400.8814297612707,1216.01 L 462.3016804614691,1216.01 L 523.7219311616676,1216.01 L 585.142181861866,1216.01 L 646.5624325620643,1216.01 L 707.9826832622628,1216.01 L 769.4029339624612,1216.01 L 830.8231846626595,1216.01 L 845.8428297890309,1138.6713590327404 L 845.8428297890309,1036.3042745324096 L 830.2085648017498,959.99 L 768.7883141015514,959.99 L 707.368063401353,959.99 L 645.9478127011546,959.99 L 584.5275620009561,959.99 L 525.442829789031,956.0974691862114 L 525.442829789031,853.7303846858806 L 525.442829789031,751.3633001855499 L 569.5678975419312,759.5516306499857 L 630.4364977705188,768.01 L 690.7703318377337,758.4078962671156 L 747.9722104331895,721.1254800503381 L 799.4182911428318,669.6603998321891 L 841.4712296465118,595.0503476482409 L 870.6148838589086,507.2248892906898 L 891.5296187814515,410.9754872839618 L 898.042829789031,310.51351868180154 L 898.042829789031,208.1464341814708 L 883.8382786664913,111.00709543338544 L 857.9735166513599,18.15923178932394 L 816.8502749279946,-55.49026834578925 L 770.3584961710014,-122.38491403930475 L 712.9634980917002,-157.77935712842245 L 654.9440336818723,-191.36957336569128 L 593.5886019907282,-192.01 L 532.3156101453176,-187.6538918743792 L 471.463821521936,-174.19430465697442 L 411.29204161173186,-153.8423829529782 L 352.1745422695979,-126.07507265591526 L 329.5908223230906,-55.98973024620447 L 339.61086624682196,45.00595057235719 L 349.6309101705533,146.00163139091904 z" /></g></svg>