<svg xmlns="http://www.w3.org/2000/svg" xmlns:xlink="http://www.w3.org/1999/xlink" width="300" height="300" viewBox="30.68576174361479 -73.56 1158.874238256385 1608.12" preserveAspectRatio="xMinYMin meet"><g transform="matrix(1,0,0,-1,0,1461.0)"><path fill-rule="evenodd" fill="#66cc99" stroke="#555555" stroke-width="10.720799999999999" opacity="0.6" d="M 586.0,-14.0 L 462.1154334135185,-9.194746220112258 L 343.64820621597534,29.504932759897045 L 233.4680169700955,86.11352173710141 L 138.63335852903947,166.18031539254827 L 90.24576174361479,262.092641624732 L 181.40879419749567,347.0906298329371 L 268.41844187640186,280.03739279387423 L 365.93893161000454,202.72550867596885 L 481.2430922354809,156.01906443949065 L 605.1577943017699,152.0 L 729.7987912762765,152.0 L 828.9784231978967,218.06467784230648 L 921.3811354207254,301.71344890718296 L 946.0,415.43288271329925 L 946.0,540.0738796878059 L 919.6838951794895,653.1457044229427 L 827.843579662587,737.4115609281419 L 730.2900451288979,807.0 L 605.6490481543915,807.0 L 481.00805117988466,807.0 L 360.58115373029364,777.0363310704321 L 241.37366600976677,740.642306884889 L 172.0,789.4205071362712 L 172.0,914.0615041107781 L 172.0,1038.702501085285 L 172.0,1163.3434980597917 L 172.0,1287.984495034298 L 172.0,1412.625492008805 L 234.26648898331177,1475.0 L 358.90748595781815,1475.0 L 483.548482932325,1475.0 L 608.1894799068318,1475.0 L 732.8304768813382,1475.0 L 857.4714738558455,1475.0 L 982.1124708303519,1475.0 L 1042.0,1410.2465321951404 L 1042.0,1285.605535220634 L 1042.0,1160.9645382461276 L 919.3235412716203,1159.0 L 862.0,1226.317455702886 L 832.0415473226076,1321.0 L 707.4005503481003,1321.0 L 582.7595533735939,1321.0 L 458.11855639908754,1321.0 L 352.0,1302.4775594245802 L 352.0,1177.8365624500739 L 352.0,1053.1955654755666 L 352.0,928.5545685010602 L 449.6956669429286,930.3391333885858 L 572.785932523132,946.0 L 697.4269294976384,946.0 L 822.0679264721457,946.0 L 923.7219891686095,889.5898742215861 L 1012.8636350992813,802.4741747893388 L 1102.0052810299535,715.3584753570908 L 1130.0,602.5022075963561 L 1130.0,477.86121062184975 L 1130.0,353.22021364734246 L 1114.0137672001983,235.7420085839607 L 1020.9947602105208,152.77911045803205 L 927.9757532208425,69.81621233210277 L 834.956746231165,-13.146685793825895 L 710.6409969745064,-14.0 L 586.0,-14.0 z" /></g></svg>